<?xml version="1.0" encoding="utf-8"?>
<svg version="1.1" xmlns:xlink="http://www.w3.org/1999/xlink" width="30px" height="29px" xmlns="http://www.w3.org/2000/svg">
  <g transform="matrix(1 0 0 1 -1789 -19 )">
    <path d="M 7.54261363636363 20.4630177514793  C 7.54261363636363 20.4630177514793  7.54261363636363 20.4630177514793  7.54261363636364 20  L 22.4573863636364 20  C 22.4573863636364 20.4630177514793  22.4573863636364 20.4630177514793  22.4573863636364 20.4630177514793  C 25.3992440509453 20.4630177514793  27.7840909090909 18.0621778374802  27.7840909090909 15.1005917159763  C 27.7840909090909 12.1390055944724  25.3992440509453 9.73816568047337  22.4573863636364 9.73816568047337  C 22.4573863636364 5.59194511036793  19.1186007622325 2.23076923076923  15 2.23076923076923  C 10.8813992377675 2.23076923076923  7.54261363636364 5.59194511036793  7.54261363636364 9.73816568047337  C 4.60075594905472 9.73816568047337  2.21590909090909 12.1390055944724  2.21590909090909 15.1005917159763  C 2.21590909090909 18.0621778374802  4.60075594905472 20.4630177514793  7.54261363636363 20.4630177514793  Z M 22.4573863636364 22.6079881656805  L 7.54261363636364 22.6079881656805  C 7.54011127089066 22.6079907016215  7.53760890431258 22.6079919695923  7.53510653757169 22.6079919695923  C 3.41650577533921 22.6079919695923  0.0777201739353214 19.2468160899936  0.0777201739353214 15.1005955198881  C 0.0777201739353214 11.706511105203  2.33976889310605 8.73458839255843  5.59517045454545 7.85166420118343  C 6.46661931818182 3.42444526627219  10.3465909090909 0.0857988165680473  15 0.0857988165680473  C 19.6544744318182 0.0857988165680473  23.5333806818182 3.42444526627219  24.4048295454545 7.85166420118343  C 27.6602311068939 8.73458839255843  29.9222798260647 11.706511105203  29.9222798260647 15.1005955198881  C 29.9222798260647 19.2468160899936  26.5834942246608 22.6079919695923  22.4648934624283 22.6079919695923  C 22.4623910956896 22.6079919695923  22.4598887291071 22.6079907016215  22.4573863636364 22.6079881656805  Z M 6.31321022727273 24.9535133136095  L 6.31214488636364 24.9535133136095  C 6.68776431377417 25.129503601767  6.92796364703697 25.5087615870369  6.92796364703697 25.9258481627194  C 6.92796364703697 26.0827612422022  6.89376144617116 26.2377630061288  6.82776988636364 26.3799186390533  L 5.92755681818182 28.3232618343195  C 5.75260069688926 28.7011583986553  5.37597406099103 28.9427552894296  4.96182528409091 28.9427552894296  C 4.37338064600669 28.9427552894296  3.89635201461442 28.4625276494639  3.89635201461442 27.8701368343195  C 3.89635201461442 27.7135772310576  3.93039611066968 27.5589154842432  3.99609375 27.4170118343195  L 4.89630681818182 25.4725961538462  C 5.07112475724113 25.0944577795851  5.44785633743676 24.8526476421151  5.86216451508374 24.8526476421151  C 6.01803232718748 24.8526476421151  6.17200155585282 24.8870792068526  6.31321022727273 24.9535133136095  Z M 12.7052556818182 24.9535133136095  L 12.7041903409091 24.9535133136095  C 13.0798097683196 25.129503601767  13.3200091015824 25.5087615870369  13.3200091015824 25.9258481627194  C 13.3200091015824 26.0827612422022  13.2858069007166 26.2377630061288  13.2198153409091 26.3799186390533  L 12.3196022727273 28.3232618343195  C 12.1446461514347 28.7011583986553  11.7680195155365 28.9427552894296  11.3538707386364 28.9427552894296  C 10.7654261005521 28.9427552894296  10.2883974691599 28.4625276494639  10.2883974691599 27.8701368343195  C 10.2883974691599 27.7135772310576  10.3224415652151 27.5589154842432  10.3881392045455 27.4170118343195  L 11.2883522727273 25.4725961538462  C 11.4631702117866 25.0944577795851  11.8399017919822 24.8526476421151  12.2542099696292 24.8526476421151  C 12.4100777817329 24.8526476421151  12.5640470103983 24.8870792068526  12.7052556818182 24.9535133136095  Z M 19.0973011363636 24.9535133136095  L 19.0962357954545 24.9535133136095  C 19.4718552228651 25.129503601767  19.7120545561279 25.5087615870369  19.7120545561279 25.9258481627194  C 19.7120545561279 26.0827612422022  19.6778523552621 26.2377630061288  19.6118607954545 26.3799186390533  L 18.7116477272727 28.3232618343195  C 18.5366916059802 28.7011583986553  18.1600649700819 28.9427552894296  17.7459161931818 28.9427552894296  C 17.1574715550976 28.9427552894296  16.6804429237053 28.4625276494639  16.6804429237053 27.8701368343195  C 16.6804429237053 27.7135772310576  16.7144870197606 27.5589154842432  16.7801846590909 27.4170118343195  L 17.6803977272727 25.4725961538462  C 17.855215666332 25.0944577795851  18.2319472465277 24.8526476421151  18.6462554241747 24.8526476421151  C 18.8021232362784 24.8526476421151  18.9560924649437 24.8870792068526  19.0973011363636 24.9535133136095  Z M 25.4893465909091 24.9535133136095  L 25.48828125 24.9535133136095  C 25.8639006774105 25.129503601767  26.1041000106733 25.5087615870369  26.1041000106733 25.9258481627194  C 26.1041000106733 26.0827612422022  26.0698978098075 26.2377630061288  26.00390625 26.3799186390533  L 25.1036931818182 28.3232618343195  C 24.9287370605256 28.7011583986553  24.5521104246274 28.9427552894296  24.1379616477273 28.9427552894296  C 23.5495170096431 28.9427552894296  23.0724883782508 28.4625276494639  23.0724883782508 27.8701368343195  C 23.0724883782508 27.7135772310576  23.106532474306 27.5589154842432  23.1722301136364 27.4170118343195  L 24.0724431818182 25.4725961538462  C 24.2472611208775 25.0944577795851  24.6239927010731 24.8526476421151  25.0383008787201 24.8526476421151  C 25.1941686908239 24.8526476421151  25.3481379194892 24.8870792068526  25.4893465909091 24.9535133136095  Z " fill-rule="nonzero" fill="#ffffff" stroke="none" transform="matrix(1 0 0 1 1789 19 )" />
  </g>
</svg>